<svg xmlns="http://www.w3.org/2000/svg" viewBox="0 0 24 24" width="24" height="24"><path fill="currentColor" d="M8.5 3A3.5 3.5 0 0 0 5 6.5c0 .27.03.53.09.78A3.5 3.5 0 0 0 3 10.5c0 .98.4 1.87 1.05 2.5A3.5 3.5 0 0 0 3 15.5 3.5 3.5 0 0 0 6.5 19c.08 0 .16 0 .24-.01A3 3 0 0 0 12 18.2V4.7A3 3 0 0 0 8.5 3Zm7 0A3 3 0 0 0 12 4.7v13.5a3 3 0 0 0 5.26 1.79c.08 0 .16.01.24.01A3.5 3.5 0 0 0 21 15.5a3.5 3.5 0 0 0-1.05-2.5A3.49 3.49 0 0 0 21 10.5a3.5 3.5 0 0 0-2.09-3.22c.06-.25.09-.51.09-.78A3.5 3.5 0 0 0 15.5 3Z"/></svg>
